# xmcd CD database file
#
# Track frame offsets:
#	150
#	12653
#	24727
#	36460
#	50733
#	60265
#	72963
#	83157
#	94388
#	107921
#	117816
#	141385
#	154718
#	165887
#	178383
#	197228
#	212635
#	229355
#	242876
#	261093
#	272474
#	288767
#	302766
#	315127
#
# Disc length: 4386 seconds
#
# Revision: 1
# Processed by: cddbd v1.5.2PL0 Copyright (c) Steve Scherf et al.
# Submitted via: CDex 1.51
#
DISCID=5a112018
DTITLE=Various Artist - 30 let Ceske Country 1967-1976
DYEAR=2004
DGENRE=Country
TTITLE0=To vsechno odnes cas (Waldemar Matuska)
TTITLE1=Sve banjo odhazuji v dal (Jiri Grossmann
TTITLE2=Ja zahadou se trapim (Nada Urbankova)
TTITLE3=Cekej tise (Eva Olmerova)
TTITLE4=Drahy mul (Urbankova a Grossmann)
TTITLE5=Oh, Ruby, nechtej mi lasku brat (Pavel Bobek)
TTITLE6=Ta zem je tva zem (Rangers)
TTITLE7=Kovbojuv narek (Karel Zich a Spiritual Kvintet)
TTITLE8=T jako Texas (Greenhorns)
TTITLE9=Aljaska (Mustangove)
TTITLE10=Zatim co ty spis (Mirek Cerny)
TTITLE11=Pole s bavlnou (Rangers)
TTITLE12=Blues folsomske veznice (Michal Tucny)
TTITLE13=Haj modrinou (Karel Kahovec)
TTITLE14=Oranzovy expres (Mirek Hoffmann)
TTITLE15=El Paso (Michal Tucny a Tomas Linka)
TTITLE16=Zavidim (Nada Urbankova)
TTITLE17=Ja tu zemi znam (Ladislav vodicka)
TTITLE18=Dlouhy cerny zavoj (Vrata vyskocil a taxmeni)
TTITLE19=Jackson (Urbankova a Grossmann)
TTITLE20=Vysocina (Plavci)
TTITLE21=Nakladak (Petra Cernocka)
TTITLE22=Ved me dal cesto ma (Pavel Bobek)
TTITLE23=To jsem ja, ten kovboj (Waldemar Matuska)
EXTD=YEAR: 2004
EXTT0=
EXTT1=
EXTT2=
EXTT3=
EXTT4=
EXTT5=
EXTT6=
EXTT7=
EXTT8=
EXTT9=
EXTT10=
EXTT11=
EXTT12=
EXTT13=
EXTT14=
EXTT15=
EXTT16=
EXTT17=
EXTT18=
EXTT19=
EXTT20=
EXTT21=
EXTT22=
EXTT23=
PLAYORDER=
